<?xml version="1.0" encoding="UTF-8"?>
<svg id="Layer_1" data-name="Layer 1" xmlns="http://www.w3.org/2000/svg" viewBox="0 0 325.48 70.67">
  <defs>
    <style>
      .cls-1 {
        fill: #3295f2;
      }

      .cls-1, .cls-2, .cls-3, .cls-4 {
        stroke-width: 0px;
      }

      .cls-2 {
        fill: #18d97c;
      }

      .cls-3 {
        fill: #002151;
      }

      .cls-4 {
        fill: #f9c126;
      }
    </style>
  </defs>
  <g>
    <path class="cls-3" d="M77.18,42.79l6.8-2.06c1,3.9,4.48,7.01,9.96,7.01,4.43,0,7.11-2.27,7.11-4.69,0-2-1.32-3.32-4.58-4.43l-9.12-2.95c-4.79-1.63-8.32-4.64-8.27-9.33-.05-5.8,5.58-10.59,13.8-10.59s13.28,4.21,14.75,9.38l-6.64,2c-1.05-3.06-4.21-5.11-8.48-5.11-3.79,0-6.22,1.84-6.22,4,0,1.74,1.11,2.69,3.95,3.64l8.17,2.74c5.58,1.84,9.85,4.27,9.85,10.17,0,6.48-5.95,11.43-14.81,11.43-9.38,0-14.86-5.37-16.28-11.22Z"/>
    <path class="cls-3" d="M110.45,40c0-8.01,5.95-14.02,14.07-14.02,7.32,0,11.96,4.69,12.96,8.69l-6.38,1.79c-.63-2.16-3.11-4.43-6.59-4.43-4.48,0-7.38,3.64-7.38,7.9s2.9,8.01,7.38,8.01c3.48,0,5.95-2.11,6.59-4.32l6.38,1.79c-1,4-5.64,8.59-12.91,8.59-8.17,0-14.12-6.06-14.12-14.02Z"/>
    <path class="cls-3" d="M166.83,37.73v15.6h-6.85v-14.28c0-4.11-1.9-6.69-5.74-6.69s-6.48,3.06-6.48,7.8v13.17h-6.9V14.86h6.9v15.23c1.84-2.37,4.74-4.11,8.59-4.11,6.96,0,10.49,4.64,10.49,11.75Z"/>
    <path class="cls-3" d="M170.08,40c0-8.01,6.01-14.02,14.23-14.02s14.23,6.01,14.23,14.02-6.01,14.02-14.23,14.02-14.23-6.01-14.23-14.02ZM191.84,40c0-4.48-3.06-7.8-7.54-7.8s-7.59,3.32-7.59,7.8,3.11,7.8,7.59,7.8,7.54-3.32,7.54-7.8Z"/>
    <path class="cls-3" d="M200.56,40c0-8.01,6.01-14.02,14.23-14.02s14.23,6.01,14.23,14.02-6.01,14.02-14.23,14.02-14.23-6.01-14.23-14.02ZM222.33,40c0-4.48-3.06-7.8-7.53-7.8s-7.59,3.32-7.59,7.8,3.11,7.8,7.59,7.8,7.53-3.32,7.53-7.8Z"/>
    <path class="cls-3" d="M232.66,53.33V14.86h6.9v38.46h-6.9Z"/>
    <path class="cls-3" d="M242.78,42.79l6.8-2.06c1,3.9,4.48,7.01,9.96,7.01,4.43,0,7.11-2.27,7.11-4.69,0-2-1.32-3.32-4.58-4.43l-9.12-2.95c-4.79-1.63-8.32-4.64-8.27-9.33-.05-5.8,5.58-10.59,13.8-10.59s13.28,4.21,14.75,9.38l-6.64,2c-1.05-3.06-4.21-5.11-8.48-5.11-3.79,0-6.22,1.84-6.22,4,0,1.74,1.11,2.69,3.95,3.64l8.17,2.74c5.58,1.84,9.85,4.27,9.85,10.17,0,6.48-5.95,11.43-14.81,11.43-9.38,0-14.86-5.37-16.28-11.22Z"/>
    <path class="cls-3" d="M303.56,42.21h-20.81c.53,3.42,3,6.06,7.85,6.06,3.42,0,5.48-1.58,6.53-3.58l6.22,1.79c-1.53,3.48-5.9,7.53-12.91,7.53-8.48,0-14.38-5.58-14.38-13.96s5.53-14.07,13.91-14.07,13.75,6.01,13.75,13.65c0,.9-.05,1.69-.16,2.58ZM282.75,37.63h14.17c-.32-3.27-2.85-5.85-7.01-5.85s-6.74,2.85-7.17,5.85Z"/>
    <path class="cls-3" d="M324.11,52.48c-2.16.84-4,1.26-6.22,1.26-6.11,0-8.85-3.79-8.85-9.54v-11.49h-4.53v-6.06h4.53v-8.64h6.85v8.64h7.9v6.06h-7.9v11.49c0,2.21,1.11,3.48,3.37,3.48,1.16,0,2.05-.21,3.16-.79l1.69,5.59Z"/>
  </g>
  <path class="cls-1" d="M.02,25.93v2.43s.01,6.27.01,6.27H.04s0,.41,0,.41c0,5.42,4.41,9.81,9.83,9.8h.39s0,0,.01,0l40.27-.07h2.44c.23,0,.42-.2.42-.43h0s0-.13,0-.13l-.02-8.97c0-5.42-4.41-9.81-9.83-9.8l-40.68.07h0s-2.44,0-2.44,0c-.23,0-.42.19-.42.43H.02Z"/>
  <g>
    <path class="cls-2" d="M12.56,0h5.91c6.17-.02,10.33,4.13,10.34,9.27h0c0,5.58-4.51,10.11-10.09,10.12l-18.3.03c-.22,0-.41-.18-.41-.4,0-.95,0-3.49-.01-6.42C-.01,5.67,5.61.02,12.56,0Z"/>
    <circle class="cls-2" cx="43.84" cy="9.61" r="9.61"/>
  </g>
  <g>
    <path class="cls-4" d="M40.9,70.61l-5.91.02c-6.17.02-10.34-4.13-10.36-9.26h0c-.02-5.58,4.49-10.12,10.07-10.14l18.3-.06c.22,0,.41.18.41.4,0,.95.01,3.49.02,6.42.02,6.95-5.59,12.6-12.54,12.63Z"/>
    <circle class="cls-4" cx="9.61" cy="61.07" r="9.61"/>
  </g>
</svg>